<?xml version="1.0" encoding="UTF-8"?>
<!DOCTYPE svg PUBLIC "-//W3C//DTD SVG 1.1//EN" "http://www.w3.org/Graphics/SVG/1.1/DTD/svg11.dtd">
<!-- Creator: CorelDRAW -->
<svg xmlns="http://www.w3.org/2000/svg" xml:space="preserve" width="70.5554mm" height="5.6444mm" style="shape-rendering:geometricPrecision; text-rendering:geometricPrecision; image-rendering:optimizeQuality; fill-rule:evenodd; clip-rule:evenodd"
viewBox="0 0 70.5554 5.6444"
 xmlns:xlink="http://www.w3.org/1999/xlink">
 <defs>
  <style type="text/css">
   <![CDATA[
    .fil5 {fill:#A73329}
    .fil2 {fill:#ADACA2}
    .fil0 {fill:#E04B3F}
    .fil3 {fill:#E2DFD0}
    .fil4 {fill:#ECEADE}
    .fil1 {fill:#EEECDF}
   ]]>
  </style>
 </defs>
 <g id="Layer_x0020_1">
  <metadata id="CorelCorpID_0Corel-Layer"/>
  <path class="fil0" d="M0.9897 58.7635l0.0977 -5.5596 -0.0947 -117.748c14.3803,7.5371 29.0271,20.3394 42.4615,29.6652 14.1489,9.8213 27.4783,20.9254 41.5586,29.4103 8.8407,7.1625 16.0002,-2.4086 23.9823,-7.9075 8.3429,-5.7479 15.9777,-11.3537 23.7183,-16.9911l48.1814 -33.7889 25.9446 -19.4621c0,-17.5369 -1.3533,-24.6848 -19.5781,-24.6848 -5.0654,4.8778 -86.2301,65.9599 -96.0829,70.5256 -18.4713,-12.7349 -85.8792,-64.2751 -96.7053,-70.5256 -20.9344,0 -19.0686,11.8727 -18.9636,32.1205l-0.0279 107.137c-0.2635,24.2075 1.3284,27.8085 25.5081,27.8085z"/>
  <path class="fil1" d="M187.261 -108.303l-192.788 0c14.3785,8.5923 78.234,57.7907 96.7053,70.5256 9.8528,-4.5657 91.0175,-65.6478 96.0829,-70.5256z"/>
  <path class="fil2" d="M85.0128 -5.4684c-0.9538,6.2141 -0.0297,3.2792 -3.8347,7.1097 -7.4291,7.4794 -77.6548,50.6919 -80.0907,51.5626l-0.0977 5.5596 1.7012 0c7.528,-9.6573 77.2862,-52.3391 88.4875,-59.4604 8.3519,4.363 15.5181,10.2584 22.7984,15.1526 8.6209,5.7952 14.1344,9.0283 22.1244,14.4708 11.9159,8.1169 33.33,21.3594 42.0833,29.837l2.9902 0 -0.2799 -122.919c-16.6917,10.3713 -32.2766,22.2052 -48.1814,33.7889 -7.7406,5.6374 -15.3754,11.2432 -23.7183,16.9911 -7.9821,5.4989 -15.1416,15.07 -23.9823,7.9075z"/>
  <path class="fil3" d="M2.6909 58.7635l175.494 0c-8.7533,-8.4776 -30.1674,-21.7201 -42.0833,-29.837 -7.99,-5.4425 -13.5035,-8.6756 -22.1244,-14.4708 -7.2803,-4.8942 -14.4465,-10.7896 -22.7984,-15.1526 -11.2013,7.1213 -80.9595,49.8031 -88.4875,59.4604z"/>
  <path class="fil4" d="M1.0874 53.2039c2.4359,-0.8707 72.6616,-44.0832 80.0907,-51.5626 3.805,-3.8305 2.8809,-0.8956 3.8347,-7.1097 -14.0803,-8.4849 -27.4097,-19.589 -41.5586,-29.4103 -13.4344,-9.3258 -28.0812,-22.1281 -42.4615,-29.6652l0.0947 117.748z"/>
  <path class="fil5" d="M180.895 -64.1559l0.2799 122.919c15.6103,0 24.2531,-0.4572 25.7345,-14.9237 1.1457,-11.1854 -0.0698,-30.7902 -0.0698,-42.9071l0 -84.5507 -25.9446 19.4621z"/>
 </g>
</svg>
