<?xml version="1.0" encoding="UTF-8" standalone="no"?>
<!-- Creator: CorelDRAW -->

<svg
   xmlns:dc="http://purl.org/dc/elements/1.1/"
   xmlns:cc="http://creativecommons.org/ns#"
   xmlns:rdf="http://www.w3.org/1999/02/22-rdf-syntax-ns#"
   xmlns:svg="http://www.w3.org/2000/svg"
   xmlns="http://www.w3.org/2000/svg"
   xmlns:sodipodi="http://sodipodi.sourceforge.net/DTD/sodipodi-0.dtd"
   xmlns:inkscape="http://www.inkscape.org/namespaces/inkscape"
   xml:space="preserve"
   width="26"
   height="18"
   style="fill-rule:evenodd"
   viewBox="0 0 7.337785 5.0799997"
   id="svg2"
   version="1.1"
   inkscape:version="0.48.3.1 r9886"
   sodipodi:docname="new-email.svg"><metadata
   id="metadata24"><rdf:RDF><cc:Work
       rdf:about=""><dc:format>image/svg+xml</dc:format><dc:type
         rdf:resource="http://purl.org/dc/dcmitype/StillImage" /></cc:Work></rdf:RDF></metadata><sodipodi:namedview
   pagecolor="#ffffff"
   bordercolor="#666666"
   borderopacity="1"
   objecttolerance="10"
   gridtolerance="10"
   guidetolerance="10"
   inkscape:pageopacity="0"
   inkscape:pageshadow="2"
   inkscape:window-width="1366"
   inkscape:window-height="721"
   id="namedview22"
   showgrid="false"
   inkscape:zoom="11.313709"
   inkscape:cx="9.7335397"
   inkscape:cy="9.7803512"
   inkscape:window-x="0"
   inkscape:window-y="24"
   inkscape:window-maximized="1"
   inkscape:current-layer="svg2" />
 <defs
   id="defs4">
  <style
   type="text/css"
   id="style6">
   
    .fil5 {fill:#A73329}
    .fil2 {fill:#ADACA2}
    .fil0 {fill:#E04B3F}
    .fil3 {fill:#E2DFD0}
    .fil4 {fill:#ECEADE}
    .fil1 {fill:#EEECDF}
   
  </style>
 </defs>
 <g
   id="Layer_x0020_1"
   transform="matrix(0.03123634,0,0,0.02892352,0.84619907,3.264362)">
  <metadata
   id="CorelCorpID_0Corel-Layer" />
  <path
   class="fil0"
   d="M 0.9897,58.7635 1.0874,53.2039 0.9927,-64.5441 c 14.3803,7.5371 29.0271,20.3394 42.4615,29.6652 14.1489,9.8213 27.4783,20.9254 41.5586,29.4103 8.8407,7.1625 16.0002,-2.4086 23.9823,-7.9075 8.3429,-5.7479 15.9777,-11.3537 23.7183,-16.9911 l 48.1814,-33.7889 25.9446,-19.4621 c 0,-17.5369 -1.3533,-24.6848 -19.5781,-24.6848 -5.0654,4.8778 -86.2301,65.9599 -96.0829,70.5256 -18.4713,-12.7349 -85.8792,-64.2751 -96.7053,-70.5256 -20.9344,0 -19.0686,11.8727 -18.9636,32.1205 l -0.0279,107.137 C -24.7819,55.162 -23.19,58.763 0.9897,58.763 z"
   id="path10"
   inkscape:connector-curvature="0"
   style="fill:#e04b3f" />
  <path
   class="fil1"
   d="m 187.261,-108.303 -192.788,0 c 14.3785,8.5923 78.234,57.7907 96.7053,70.5256 9.8528,-4.5657 91.0175,-65.6478 96.0829,-70.5256 z"
   id="path12"
   inkscape:connector-curvature="0"
   style="fill:#eeecdf" />
  <path
   class="fil2"
   d="M 85.0128,-5.4684 C 84.059,0.7457 84.9831,-2.1892 81.1781,1.6413 73.749,9.1207 3.5233,52.3332 1.0874,53.2039 l -0.0977,5.5596 1.7012,0 c 7.528,-9.6573 77.2862,-52.3391 88.4875,-59.4604 8.3519,4.363 15.5181,10.2584 22.7984,15.1526 8.6209,5.7952 14.1344,9.0283 22.1244,14.4708 11.9159,8.1169 33.33,21.3594 42.0833,29.837 l 2.9902,0 -0.2799,-122.919 c -16.6917,10.3713 -32.2766,22.2052 -48.1814,33.7889 -7.7406,5.6374 -15.3754,11.2432 -23.7183,16.9911 -7.9821,5.4989 -15.1416,15.07 -23.9823,7.9075 z"
   id="path14"
   inkscape:connector-curvature="0"
   style="fill:#adaca2" />
  <path
   class="fil3"
   d="m 2.6909,58.7635 175.494,0 C 169.4316,50.2859 148.0175,37.0434 136.1016,28.9265 128.1116,23.484 122.5981,20.2509 113.9772,14.4557 106.6969,9.5615 99.5307,3.6661 91.1788,-0.6969 79.9775,6.4244 10.2193,49.1062 2.6913,58.7635 z"
   id="path16"
   inkscape:connector-curvature="0"
   style="fill:#e2dfd0" />
  <path
   class="fil4"
   d="M 1.0874,53.2039 C 3.5233,52.3332 73.749,9.1207 81.1781,1.6413 84.9831,-2.1892 84.059,0.7457 85.0128,-5.4684 70.9325,-13.9533 57.6031,-25.0574 43.4542,-34.8787 30.0198,-44.2045 15.373,-57.0068 0.9927,-64.5439 l 0.0947,117.748 z"
   id="path18"
   inkscape:connector-curvature="0"
   style="fill:#eceade" />
  <path
   class="fil5"
   d="m 180.895,-64.1559 0.2799,122.919 c 15.6103,0 24.2531,-0.4572 25.7345,-14.9237 1.1457,-11.1854 -0.0698,-30.7902 -0.0698,-42.9071 l 0,-84.5507 -25.9446,19.4621 z"
   id="path20"
   inkscape:connector-curvature="0"
   style="fill:#a73329" />
 </g>
</svg>