<?xml version="1.0" encoding="UTF-8" standalone="no"?>
<!-- Creator: CorelDRAW -->

<svg
   xmlns:dc="http://purl.org/dc/elements/1.1/"
   xmlns:cc="http://creativecommons.org/ns#"
   xmlns:rdf="http://www.w3.org/1999/02/22-rdf-syntax-ns#"
   xmlns:svg="http://www.w3.org/2000/svg"
   xmlns="http://www.w3.org/2000/svg"
   xmlns:sodipodi="http://sodipodi.sourceforge.net/DTD/sodipodi-0.dtd"
   xmlns:inkscape="http://www.inkscape.org/namespaces/inkscape"
   xml:space="preserve"
   width="26"
   height="18"
   style="fill-rule:evenodd"
   viewBox="0 0 7.337785 5.0799997"
   id="svg2"
   version="1.1"
   inkscape:version="0.48.3.1 r9886"
   sodipodi:docname="no-email.svg"><metadata
   id="metadata24"><rdf:RDF><cc:Work
       rdf:about=""><dc:format>image/svg+xml</dc:format><dc:type
         rdf:resource="http://purl.org/dc/dcmitype/StillImage" /><dc:title></dc:title></cc:Work></rdf:RDF></metadata><sodipodi:namedview
   pagecolor="#ffffff"
   bordercolor="#666666"
   borderopacity="1"
   objecttolerance="10"
   gridtolerance="10"
   guidetolerance="10"
   inkscape:pageopacity="0"
   inkscape:pageshadow="2"
   inkscape:window-width="1366"
   inkscape:window-height="721"
   id="namedview22"
   showgrid="false"
   inkscape:zoom="11.313709"
   inkscape:cx="1.9463676"
   inkscape:cy="20.362953"
   inkscape:window-x="0"
   inkscape:window-y="24"
   inkscape:window-maximized="1"
   inkscape:current-layer="svg2" />
 <defs
   id="defs4">
  <style
   type="text/css"
   id="style6">
   
    .fil5 {fill:#A73329}
    .fil2 {fill:#ADACA2}
    .fil0 {fill:#E04B3F}
    .fil3 {fill:#E2DFD0}
    .fil4 {fill:#ECEADE}
    .fil1 {fill:#EEECDF}
   
  </style>
 
  
  
  
  
  
  
  
 </defs>
 <path
   style="fill:#e04b3f"
   inkscape:connector-curvature="0"
   id="path10"
   d="m 0.87711368,4.9640093 0.003052,-0.1608032 -0.002958,-3.4056867 C 1.3263953,1.6155189 1.7839077,1.9858065 2.2035492,2.2555414 2.6455091,2.539608 3.0618708,2.8607777 3.5016878,3.1061908 3.7778389,3.3133556 4.0014755,3.0365256 4.2508071,2.8774781 4.5114087,2.7112286 4.7498919,2.5490891 4.99168,2.3860357 L 6.4966905,1.4087418 7.3071049,0.84582932 c 0,-0.50722888 -0.042272,-0.71397131 -0.6115482,-0.71397131 C 6.5373321,0.27294116 4.002044,2.0396505 3.6942786,2.1717066 3.1173028,1.8033685 1.0117267,0.31264448 0.67355894,0.13185801 c -0.65391403,0 -0.59563327,0.34340028 -0.59235345,0.92903789 l -8.715e-4,3.0987792 c -0.0082308,0.7001661 0.04149436,0.8043197 0.79677969,0.8043197 z"
   class="fil0" /><path
   style="fill:#eeecdf"
   inkscape:connector-curvature="0"
   id="path12"
   d="m 6.6955473,0.13185801 -6.02199148,0 C 1.1226875,0.38037757 3.1172996,1.8033685 3.6942754,2.1717066 4.0020409,2.0396505 6.537329,0.27294116 6.6955536,0.13185801 z"
   class="fil1" /><path
   style="fill:#adaca2"
   inkscape:connector-curvature="0"
   id="path14"
   d="M 3.5016878,3.1061966 C 3.4718946,3.2859303 3.5007601,3.2010426 3.3819058,3.3118342 3.1498479,3.5281647 0.95625407,4.7780224 0.88016547,4.8032061 l -0.003052,0.1608032 0.0531393,0 C 1.1654001,4.6846862 3.344391,3.4501783 3.6942786,3.2442052 c 0.2608828,0.1261933 0.4847286,0.296709 0.7121385,0.4382665 0.2692854,0.1676176 0.441507,0.2611302 0.6910853,0.4185465 0.3722091,0.2347693 1.0411072,0.617789 1.3145283,0.8629911 l 0.093403,0 -0.00874,-3.5552502 C 5.9753029,1.7087336 5.4884877,2.0510117 4.99168,2.386053 4.7498919,2.5491065 4.5114087,2.711246 4.2508071,2.8774955 4.0014755,3.036543 3.7778389,3.3133729 3.5016878,3.1062082 z"
   class="fil2" /><path
   style="fill:#e2dfd0"
   inkscape:connector-curvature="0"
   id="path16"
   d="m 0.93025294,4.9640093 5.48179026,0 C 6.1386221,4.7188072 5.469724,4.3357875 5.0975149,4.1010182 4.8479366,3.9436019 4.675715,3.8500893 4.4064296,3.6824717 4.1790197,3.5409142 3.9551739,3.3703985 3.6942911,3.2442052 3.3444035,3.4501783 1.1654126,4.6846862 0.93026543,4.9640093 z"
   class="fil3" /><path
   style="fill:#eceade"
   inkscape:connector-curvature="0"
   id="path18"
   d="M 0.88016547,4.8032061 C 0.95625407,4.7780224 3.1498479,3.5281647 3.3819058,3.3118342 3.5007601,3.2010426 3.4718946,3.2859303 3.5016878,3.1061966 3.0618708,2.8607834 2.6455091,2.5396138 2.2035492,2.2555472 1.7839077,1.9858123 1.3263953,1.6155247 0.87720738,1.3975252 l 0.002958,3.4056867 z"
   class="fil4" /><path
   style="fill:#a73329"
   inkscape:connector-curvature="0"
   id="path20"
   d="m 6.4966968,1.4087475 0.00874,3.5552502 c 0.4876087,0 0.7575781,-0.013224 0.8038516,-0.4316459 0.035787,-0.3235212 -0.00218,-0.890561 -0.00218,-1.2410244 l 0,-2.44550386 L 6.4966968,1.408736 z"
   class="fil5" />
<text
   xml:space="preserve"
   style="font-size:12.29886341px;font-style:normal;font-weight:normal;line-height:125%;letter-spacing:0px;word-spacing:0px;fill:#ff2a2a;fill-opacity:1;stroke:#000000;stroke-width:0.03074716;stroke-miterlimit:4;stroke-opacity:1;stroke-dasharray:none;font-family:Sans"
   x="-1.6703731"
   y="8.5389757"
   id="text3865"
   sodipodi:linespacing="125%"
   transform="matrix(1.2903924,-0.50941437,0.26468371,0.67046763,0,0)"><tspan
     sodipodi:role="line"
     id="tspan3867"
     x="-1.6703731"
     y="8.5389757"
     style="font-style:normal;font-variant:normal;font-weight:normal;font-stretch:normal;fill:#ff2a2a;stroke:#000000;stroke-width:0.03074716;stroke-miterlimit:4;stroke-opacity:1;stroke-dasharray:none;font-family:Standard Symbols L;-inkscape-font-specification:Standard Symbols L">x</tspan></text>
</svg>