<?xml version="1.0" encoding="UTF-8" standalone="no"?>
<!-- Creator: CorelDRAW -->

<svg
   xmlns:dc="http://purl.org/dc/elements/1.1/"
   xmlns:cc="http://creativecommons.org/ns#"
   xmlns:rdf="http://www.w3.org/1999/02/22-rdf-syntax-ns#"
   xmlns:svg="http://www.w3.org/2000/svg"
   xmlns="http://www.w3.org/2000/svg"
   xmlns:sodipodi="http://sodipodi.sourceforge.net/DTD/sodipodi-0.dtd"
   xmlns:inkscape="http://www.inkscape.org/namespaces/inkscape"
   xml:space="preserve"
   width="24"
   height="16"
   style="fill-rule:evenodd"
   viewBox="0 0 6.77334 4.5155553"
   id="svg2"
   version="1.1"
   inkscape:version="0.48.3.1 r9886"
   sodipodi:docname="no-connection.svg"><metadata
   id="metadata24"><rdf:RDF><cc:Work
       rdf:about=""><dc:format>image/svg+xml</dc:format><dc:type
         rdf:resource="http://purl.org/dc/dcmitype/StillImage" /><dc:title /></cc:Work></rdf:RDF></metadata><sodipodi:namedview
   pagecolor="#ffffff"
   bordercolor="#666666"
   borderopacity="1"
   objecttolerance="10"
   gridtolerance="10"
   guidetolerance="10"
   inkscape:pageopacity="0"
   inkscape:pageshadow="2"
   inkscape:window-width="1366"
   inkscape:window-height="697"
   id="namedview22"
   showgrid="false"
   inkscape:zoom="5.6568545"
   inkscape:cx="-54.141018"
   inkscape:cy="15.245375"
   inkscape:window-x="0"
   inkscape:window-y="24"
   inkscape:window-maximized="1"
   inkscape:current-layer="svg2"
   showguides="true"
   inkscape:guide-bbox="true"><sodipodi:guide
     orientation="-0.70710678,0.70710678"
     position="20.682872,4.4194172"
     id="guide3007" /></sodipodi:namedview>
 <defs
   id="defs4">
  <style
   type="text/css"
   id="style6">
   
    .fil5 {fill:#A73329}
    .fil2 {fill:#ADACA2}
    .fil0 {fill:#E04B3F}
    .fil3 {fill:#E2DFD0}
    .fil4 {fill:#ECEADE}
    .fil1 {fill:#EEECDF}
   
  </style>
 
  
  
  
  
  
  
  
 </defs>
 <path
   sodipodi:nodetypes="cccccccccccccccc"
   style="fill:none;stroke:#4b4d4d;stroke-width:0.0564445;stroke-miterlimit:4;stroke-opacity:1;stroke-dasharray:none"
   inkscape:connector-curvature="0"
   id="path10"
   d="m 0.89441956,4.4245095 0.002737,0.00548 -0.002652,-3.2036294 C 1.2973008,1.4218404 1.7075628,1.7538859 2.0838651,1.9957634 2.4801808,2.2504925 2.8660147,2.5260203 3.2604088,2.746088 3.5080399,2.9318575 3.6961074,2.6960901 3.9196888,2.5534685 4.1533763,2.4043887 4.3672297,2.2589945 4.5840467,2.1127807 L 5.9336246,1.2364186 6.660342,0.73164187 C 6.660342,0.27679796 6.622436,0.09140722 6.1119525,0.09140722 5.9700689,0.21791976 3.6841445,1.7647513 3.4081642,1.8831691 2.8907766,1.5528717 1.0151302,0.25352265 0.7118873,0.09140722 c -0.58637989,0 -0.53411818,0.30793501 -0.53117709,0.83308985 l -7.815e-4,2.77874723 c -0.007381,0.6278552 0.037209,0.7212522 0.71449085,0.7212522 z"
   class="fil0" /><path
   style="fill:none;stroke:#4b4d4d;stroke-opacity:1;stroke-width:0.04035782000000000;stroke-miterlimit:4;stroke-dasharray:none"
   inkscape:connector-curvature="0"
   id="path12"
   d="m 6.1119441,0.09140722 -5.4000596,0 C 1.1146313,0.31426048 2.9032463,1.5902895 3.4206339,1.9205868 3.6966144,1.802169 5.9700661,0.21791976 6.1119497,0.09140722 z"
   class="fil1" /><path
   style="fill:none;stroke:#4b4d4d;stroke-width:0.09680232;stroke-miterlimit:4;stroke-opacity:1;stroke-dasharray:none"
   inkscape:connector-curvature="0"
   id="path14"
   d="m 3.2479361,2.7585657 c -0.026716,0.1611714 -8.319e-4,0.085051 -0.1074113,0.1844 -0.2080917,0.1939886 -2.17072848,1.4558762 -2.2389589,1.478459 l -0.007147,0.00308 0.0476512,0 C 1.1529327,4.174034 3.1068844,3.0670221 3.4206368,2.8823212 3.6545764,2.9954817 3.8553042,3.1483871 4.0592279,3.275325 4.3007024,3.4256316 4.4551375,3.5094865 4.6789401,3.6506453 5.0127087,3.8611684 5.6125251,4.2046311 5.8577082,4.4245095 l 0.083757,0 -0.00784,-3.1880754 C 5.4660842,1.5054282 5.0295457,1.8123569 4.5840467,2.1127962 4.3672297,2.2590101 4.1533763,2.4044043 3.9196888,2.5534841 3.6961074,2.6961057 3.4955672,2.9443455 3.2479361,2.7585761 z"
   class="fil2"
   sodipodi:nodetypes="ccccccccccccccc" /><path
   style="fill:none;stroke:#4b4d4d;stroke-opacity:1;stroke-width:0.04035782;stroke-miterlimit:4;stroke-dasharray:none"
   inkscape:connector-curvature="0"
   id="path16"
   d="m 0.94207077,4.4245095 4.91564863,0 C 5.6125363,4.2046311 5.0127199,3.8611684 4.6789513,3.6506453 4.4551487,3.5094865 4.3007136,3.4256316 4.0592391,3.275325 3.8553154,3.1483871 3.6545876,2.9954817 3.420648,2.8823212 3.1068956,3.0670221 1.1529439,4.174034 0.94208197,4.4245095 z"
   class="fil3" /><path
   style="fill:none;stroke:#4b4d4d;stroke-width:0.08466675;stroke-miterlimit:4;stroke-opacity:1;stroke-dasharray:none"
   inkscape:connector-curvature="0"
   id="path18"
   d="M 0.90597562,4.3640983 C 0.92431568,4.4911866 3.1195219,3.0496462 3.3276136,2.8556576 3.434193,2.7563082 3.2212199,2.9197371 3.2479361,2.7585657 2.853542,2.538498 2.4801808,2.2504977 2.0838651,1.9957686 1.7075628,1.7538911 1.2973008,1.4218456 0.89450359,1.2263604 l 0.0151246,3.1911568 z"
   class="fil4"
   sodipodi:nodetypes="ccccccc" /><path
   style="fill:none;stroke:#4b4d4d;stroke-opacity:1;stroke-width:0.0564445;stroke-miterlimit:4;stroke-dasharray:none"
   inkscape:connector-curvature="0"
   id="path20"
   d="m 5.9336302,1.2364237 0.00784,3.1880754 c 0.43725,0 0.6793379,-0.011858 0.7208324,-0.3870669 0.032091,-0.290109 -0.00195,-0.7985867 -0.00195,-1.1128554 l 0,-2.19294011 -0.7267149,0.50477671 z"
   class="fil5" />

</svg>