<?xml version="1.0" encoding="UTF-8" standalone="no"?>
<!-- Creator: CorelDRAW -->

<svg
   xmlns:dc="http://purl.org/dc/elements/1.1/"
   xmlns:cc="http://creativecommons.org/ns#"
   xmlns:rdf="http://www.w3.org/1999/02/22-rdf-syntax-ns#"
   xmlns:svg="http://www.w3.org/2000/svg"
   xmlns="http://www.w3.org/2000/svg"
   xmlns:sodipodi="http://sodipodi.sourceforge.net/DTD/sodipodi-0.dtd"
   xmlns:inkscape="http://www.inkscape.org/namespaces/inkscape"
   xml:space="preserve"
   width="24"
   height="16"
   style="fill-rule:evenodd"
   viewBox="0 0 6.77334 4.5155553"
   id="svg2"
   version="1.1"
   inkscape:version="0.48.3.1 r9886"
   sodipodi:docname="no-email.svg"><metadata
   id="metadata24"><rdf:RDF><cc:Work
       rdf:about=""><dc:format>image/svg+xml</dc:format><dc:type
         rdf:resource="http://purl.org/dc/dcmitype/StillImage" /><dc:title /></cc:Work></rdf:RDF></metadata><sodipodi:namedview
   pagecolor="#ffffff"
   bordercolor="#666666"
   borderopacity="1"
   objecttolerance="10"
   gridtolerance="10"
   guidetolerance="10"
   inkscape:pageopacity="0"
   inkscape:pageshadow="2"
   inkscape:window-width="1366"
   inkscape:window-height="697"
   id="namedview22"
   showgrid="false"
   inkscape:zoom="11.313709"
   inkscape:cx="10.773046"
   inkscape:cy="7.0701194"
   inkscape:window-x="0"
   inkscape:window-y="24"
   inkscape:window-maximized="1"
   inkscape:current-layer="svg2" />
 <defs
   id="defs4">
  <style
   type="text/css"
   id="style6">
   
    .fil5 {fill:#A73329}
    .fil2 {fill:#ADACA2}
    .fil0 {fill:#E04B3F}
    .fil3 {fill:#E2DFD0}
    .fil4 {fill:#ECEADE}
    .fil1 {fill:#EEECDF}
   
  </style>
 
  
  
  
  
  
  
  
 </defs>
 <g
   id="g2988"
   transform="matrix(0.88126632,0,0,0.88126632,0.10910524,0.52237648)"><path
     class="fil0"
     d="m 0.87711368,4.3995643 0.003052,-0.1608032 -0.002958,-3.4056867 C 1.3263953,1.0510739 1.7839077,1.4213615 2.2035492,1.6910964 2.6455091,1.975163 3.0618708,2.2963327 3.5016878,2.5417458 3.7778389,2.7489106 4.0014755,2.4720806 4.2508071,2.3130331 4.5114087,2.1467836 4.7498919,1.9846441 4.99168,1.8215907 L 6.4966905,0.8442968 7.3071049,0.28138432 c 0,-0.50722888 -0.042272,-0.71397131 -0.6115482,-0.71397131 C 6.5373321,-0.29150384 4.002044,1.4752055 3.6942786,1.6072616 3.1173028,1.2389235 1.0117267,-0.25180052 0.67355894,-0.43258699 c -0.65391403,0 -0.59563327,0.34340028 -0.59235345,0.92903789 l -8.715e-4,3.0987792 c -0.0082308,0.7001661 0.04149436,0.8043197 0.79677969,0.8043197 z"
     id="path10"
     inkscape:connector-curvature="0"
     style="fill:#999999" /><path
     class="fil1"
     d="m 6.6955473,-0.43258699 -6.02199148,0 C 1.1226875,-0.18406743 3.1172996,1.2389235 3.6942754,1.6072616 4.0020409,1.4752055 6.537329,-0.29150384 6.6955536,-0.43258699 z"
     id="path12"
     inkscape:connector-curvature="0"
     style="fill:#eeecdf" /><path
     class="fil2"
     d="M 3.5016878,2.5417516 C 3.4718946,2.7214853 3.5007601,2.6365976 3.3819058,2.7473892 3.1498479,2.9637197 0.95625407,4.2135774 0.88016547,4.2387611 l -0.003052,0.1608032 0.0531393,0 C 1.1654001,4.1202412 3.344391,2.8857333 3.6942786,2.6797602 c 0.2608828,0.1261933 0.4847286,0.296709 0.7121385,0.4382665 0.2692854,0.1676176 0.441507,0.2611302 0.6910853,0.4185465 0.3722091,0.2347693 1.0411072,0.617789 1.3145283,0.8629911 l 0.093403,0 -0.00874,-3.5552502 C 5.9753029,1.1442886 5.4884877,1.4865667 4.99168,1.821608 4.7498919,1.9846615 4.5114087,2.146801 4.2508071,2.3130505 4.0014755,2.472098 3.7778389,2.7489279 3.5016878,2.5417632 z"
     id="path14"
     inkscape:connector-curvature="0"
     style="fill:#adaca2" /><path
     class="fil3"
     d="m 0.93025294,4.3995643 5.48179026,0 C 6.1386221,4.1543622 5.469724,3.7713425 5.0975149,3.5365732 4.8479366,3.3791569 4.675715,3.2856443 4.4064296,3.1180267 4.1790197,2.9764692 3.9551739,2.8059535 3.6942911,2.6797602 3.3444035,2.8857333 1.1654126,4.1202412 0.93026543,4.3995643 z"
     id="path16"
     inkscape:connector-curvature="0"
     style="fill:#e2dfd0" /><path
     class="fil4"
     d="M 0.88016547,4.2387611 C 0.95625407,4.2135774 3.1498479,2.9637197 3.3819058,2.7473892 3.5007601,2.6365976 3.4718946,2.7214853 3.5016878,2.5417516 3.0618708,2.2963384 2.6455091,1.9751688 2.2035492,1.6911022 1.7839077,1.4213673 1.3263953,1.0510797 0.87720738,0.8330802 l 0.002958,3.4056867 z"
     id="path18"
     inkscape:connector-curvature="0"
     style="fill:#eceade" /><path
     class="fil5"
     d="m 6.4966968,0.8443025 0.00874,3.5552502 c 0.4876087,0 0.7575781,-0.013224 0.8038516,-0.4316459 0.035787,-0.3235212 -0.00218,-0.890561 -0.00218,-1.2410244 l 0,-2.44550386 L 6.4966968,0.844291 z"
     id="path20"
     inkscape:connector-curvature="0"
     style="fill:#666666" /></g>
</svg>